<mxfile host="app.diagrams.net" modified="2024-01-31T16:30:58.047Z" agent="Mozilla/5.0 (Windows NT 10.0; Win64; x64) AppleWebKit/537.36 (KHTML, like Gecko) Chrome/120.0.0.0 Safari/537.36" etag="u3VBH1Y98wYZdp7Muvub" version="23.0.2" type="github">
  <diagram name="Page-1" id="hlB4reGKiP1FHdHmUCi6">
    <mxGraphModel dx="2074" dy="1106" grid="1" gridSize="10" guides="1" tooltips="1" connect="1" arrows="1" fold="1" page="1" pageScale="1" pageWidth="827" pageHeight="1169" math="0" shadow="0">
      <root>
        <mxCell id="0" />
        <mxCell id="1" parent="0" />
        <mxCell id="A-HEEy5cjl-H7XcxBN2x-1" value="" style="rounded=1;whiteSpace=wrap;html=1;direction=west;flipH=1;labelBackgroundColor=none;fillColor=#EEEEEE;strokeColor=#FFFFFF;fontColor=#1A1A1A;" vertex="1" parent="1">
          <mxGeometry x="10" y="30" width="320" height="500" as="geometry" />
        </mxCell>
        <mxCell id="A-HEEy5cjl-H7XcxBN2x-2" value="" style="rounded=1;whiteSpace=wrap;html=1;direction=west;flipH=1;labelBackgroundColor=none;fillColor=#EEEEEE;strokeColor=#FFFFFF;fontColor=#1A1A1A;" vertex="1" parent="1">
          <mxGeometry x="460" y="30" width="320" height="500" as="geometry" />
        </mxCell>
        <mxCell id="A-HEEy5cjl-H7XcxBN2x-3" value="" style="rounded=1;whiteSpace=wrap;html=1;direction=west;flipH=1;labelBackgroundColor=none;fillColor=#EEEEEE;strokeColor=#FFFFFF;fontColor=#1A1A1A;" vertex="1" parent="1">
          <mxGeometry x="254" y="585" width="320" height="500" as="geometry" />
        </mxCell>
        <mxCell id="A-HEEy5cjl-H7XcxBN2x-4" value="Rimbaud" style="text;html=1;strokeColor=none;fillColor=none;align=center;verticalAlign=middle;whiteSpace=wrap;rounded=0;labelBackgroundColor=none;fontColor=#1A1A1A;" vertex="1" parent="1">
          <mxGeometry x="384" y="600" width="60" height="30" as="geometry" />
        </mxCell>
        <mxCell id="A-HEEy5cjl-H7XcxBN2x-5" value="PSL" style="text;html=1;strokeColor=none;fillColor=none;align=center;verticalAlign=middle;whiteSpace=wrap;rounded=0;labelBackgroundColor=none;fontColor=#1A1A1A;" vertex="1" parent="1">
          <mxGeometry x="140" y="40" width="60" height="30" as="geometry" />
        </mxCell>
        <mxCell id="A-HEEy5cjl-H7XcxBN2x-6" value="ST-CLOUD" style="text;html=1;strokeColor=none;fillColor=none;align=center;verticalAlign=middle;whiteSpace=wrap;rounded=0;labelBackgroundColor=none;fontColor=#1A1A1A;" vertex="1" parent="1">
          <mxGeometry x="570" y="40" width="80" height="30" as="geometry" />
        </mxCell>
        <mxCell id="A-HEEy5cjl-H7XcxBN2x-9" value="" style="rounded=1;whiteSpace=wrap;html=1;labelBackgroundColor=none;fillColor=#dae8fc;strokeColor=#6c8ebf;" vertex="1" parent="1">
          <mxGeometry x="20" y="70" width="300" height="60" as="geometry" />
        </mxCell>
        <mxCell id="A-HEEy5cjl-H7XcxBN2x-10" value="" style="rounded=1;whiteSpace=wrap;html=1;labelBackgroundColor=none;fillColor=#d5e8d4;strokeColor=#82b366;" vertex="1" parent="1">
          <mxGeometry x="20" y="150" width="300" height="60" as="geometry" />
        </mxCell>
        <mxCell id="A-HEEy5cjl-H7XcxBN2x-11" value="" style="rounded=1;whiteSpace=wrap;html=1;labelBackgroundColor=none;fillColor=#e1d5e7;strokeColor=#9673a6;" vertex="1" parent="1">
          <mxGeometry x="20" y="230" width="300" height="60" as="geometry" />
        </mxCell>
        <mxCell id="A-HEEy5cjl-H7XcxBN2x-12" value="" style="rounded=1;whiteSpace=wrap;html=1;labelBackgroundColor=none;fillColor=#dae8fc;strokeColor=#6c8ebf;" vertex="1" parent="1">
          <mxGeometry x="470" y="70" width="300" height="60" as="geometry" />
        </mxCell>
        <mxCell id="A-HEEy5cjl-H7XcxBN2x-13" value="" style="rounded=1;whiteSpace=wrap;html=1;labelBackgroundColor=none;fillColor=#d5e8d4;strokeColor=#82b366;" vertex="1" parent="1">
          <mxGeometry x="470" y="150" width="300" height="60" as="geometry" />
        </mxCell>
        <mxCell id="A-HEEy5cjl-H7XcxBN2x-14" value="" style="rounded=1;whiteSpace=wrap;html=1;labelBackgroundColor=none;fillColor=#e1d5e7;strokeColor=#9673a6;" vertex="1" parent="1">
          <mxGeometry x="470" y="230" width="300" height="60" as="geometry" />
        </mxCell>
        <mxCell id="A-HEEy5cjl-H7XcxBN2x-15" value="" style="rounded=1;whiteSpace=wrap;html=1;labelBackgroundColor=none;fillColor=#dae8fc;strokeColor=#6c8ebf;" vertex="1" parent="1">
          <mxGeometry x="261" y="649" width="300" height="60" as="geometry" />
        </mxCell>
        <mxCell id="A-HEEy5cjl-H7XcxBN2x-16" value="" style="rounded=1;whiteSpace=wrap;html=1;labelBackgroundColor=none;fillColor=#d5e8d4;strokeColor=#82b366;" vertex="1" parent="1">
          <mxGeometry x="261" y="729" width="300" height="60" as="geometry" />
        </mxCell>
        <mxCell id="A-HEEy5cjl-H7XcxBN2x-17" value="" style="rounded=1;whiteSpace=wrap;html=1;labelBackgroundColor=none;fillColor=#e1d5e7;strokeColor=#9673a6;" vertex="1" parent="1">
          <mxGeometry x="261" y="809" width="300" height="60" as="geometry" />
        </mxCell>
        <mxCell id="A-HEEy5cjl-H7XcxBN2x-18" value="Text" style="text;html=1;strokeColor=none;fillColor=none;align=center;verticalAlign=middle;whiteSpace=wrap;rounded=0;fontColor=#1A1A1A;" vertex="1" parent="1">
          <mxGeometry x="380" y="550" width="60" height="30" as="geometry" />
        </mxCell>
        <mxCell id="A-HEEy5cjl-H7XcxBN2x-19" value="INFRACOM" style="text;html=1;strokeColor=none;fillColor=none;align=center;verticalAlign=middle;whiteSpace=wrap;rounded=0;fontColor=#1A1A1A;" vertex="1" parent="1">
          <mxGeometry x="140" y="85" width="60" height="30" as="geometry" />
        </mxCell>
        <mxCell id="A-HEEy5cjl-H7XcxBN2x-20" value="INFRACOM" style="text;html=1;strokeColor=none;fillColor=none;align=center;verticalAlign=middle;whiteSpace=wrap;rounded=0;fontColor=#1A1A1A;" vertex="1" parent="1">
          <mxGeometry x="580" y="85" width="60" height="30" as="geometry" />
        </mxCell>
        <mxCell id="A-HEEy5cjl-H7XcxBN2x-21" value="INFRANET" style="text;html=1;strokeColor=none;fillColor=none;align=center;verticalAlign=middle;whiteSpace=wrap;rounded=0;fontColor=#1A1A1A;" vertex="1" parent="1">
          <mxGeometry x="140" y="165" width="60" height="30" as="geometry" />
        </mxCell>
        <mxCell id="A-HEEy5cjl-H7XcxBN2x-22" value="INFRANET" style="text;html=1;strokeColor=none;fillColor=none;align=center;verticalAlign=middle;whiteSpace=wrap;rounded=0;fontColor=#1A1A1A;" vertex="1" parent="1">
          <mxGeometry x="580" y="165" width="60" height="30" as="geometry" />
        </mxCell>
        <mxCell id="A-HEEy5cjl-H7XcxBN2x-23" value="INFRANET" style="text;html=1;strokeColor=none;fillColor=none;align=center;verticalAlign=middle;whiteSpace=wrap;rounded=0;fontColor=#1A1A1A;" vertex="1" parent="1">
          <mxGeometry x="380" y="744" width="60" height="30" as="geometry" />
        </mxCell>
        <mxCell id="A-HEEy5cjl-H7XcxBN2x-24" value="INFRACOM" style="text;html=1;strokeColor=none;fillColor=none;align=center;verticalAlign=middle;whiteSpace=wrap;rounded=0;fontColor=#1A1A1A;" vertex="1" parent="1">
          <mxGeometry x="384" y="664" width="60" height="30" as="geometry" />
        </mxCell>
        <mxCell id="A-HEEy5cjl-H7XcxBN2x-25" value="SIRIUS" style="text;html=1;strokeColor=none;fillColor=none;align=center;verticalAlign=middle;whiteSpace=wrap;rounded=0;fontColor=#1A1A1A;" vertex="1" parent="1">
          <mxGeometry x="140" y="245" width="60" height="30" as="geometry" />
        </mxCell>
        <mxCell id="A-HEEy5cjl-H7XcxBN2x-26" value="SIRIUS" style="text;html=1;strokeColor=none;fillColor=none;align=center;verticalAlign=middle;whiteSpace=wrap;rounded=0;fontColor=#1A1A1A;" vertex="1" parent="1">
          <mxGeometry x="580" y="240" width="60" height="30" as="geometry" />
        </mxCell>
        <mxCell id="A-HEEy5cjl-H7XcxBN2x-27" value="SIRIUS" style="text;html=1;strokeColor=none;fillColor=none;align=center;verticalAlign=middle;whiteSpace=wrap;rounded=0;fontColor=#1A1A1A;" vertex="1" parent="1">
          <mxGeometry x="380" y="824" width="60" height="30" as="geometry" />
        </mxCell>
      </root>
    </mxGraphModel>
  </diagram>
</mxfile>
